# xmcd CD database file
#
# Track frame offsets:
#	150
#	16617
#	35612
#
# Disc length: 691 seconds
#
# Revision: 0
# Processed by: cddbd v1.5.1PL0 Copyright (c) Steve Scherf et al.
# Submitted via: CDex 1.51
#
DISCID=1602b103
DTITLE=大黒　摩季 - Stop Motion (EP)
DYEAR=1994
DGENRE=Pop
TTITLE0=Stop Motion
TTITLE1=復讐Game
TTITLE2=Stop Motion（オリジナル・カラオケ）
EXTD=YEAR: 1994
EXTT0=
EXTT1=
EXTT2=
PLAYORDER=
